# xmcd
#
# Track frame offsets:
#	150
#	15591
#	90018
#	136029
#	157120
#	197137
#	214132
#	258384
#	265053
#	293065
#
# Disc length: 4433 seconds
#
# Revision: 1
# Processed by: cddbd v1.5.2PL0 Copyright (c) Steve Scherf et al.
# Submitted via: audiograbber 1.83.01
#
DISCID=82114f0a
DTITLE=Hanneke Groenteman - Doorzakken Bij Jamin
DYEAR=2006
DGENRE=Luisterboek
TTITLE0=Hoofdstuk 01 - Ritueel
TTITLE1=Hoofdstuk 02 - Buik
TTITLE2=Hoofdstuk 03 - Toen Eten Nog Genieten Was
TTITLE3=Hoofdstuk 04 - Monoloog Met Volle Mond
TTITLE4=Hoofdstuk 05 - Etende Rug
TTITLE5=Hoofdstuk 06 - Boos
TTITLE6=Hoofdstuk 07 - Weer Thuis
TTITLE7=Hoofdstuk 08 - Levertraan
TTITLE8=Hoofdstuk 09 - Een Groep
TTITLE9=Hoofdstuk 10 - Audry
EXTD=
EXTT0=
EXTT1=
EXTT2=
EXTT3=
EXTT4=
EXTT5=
EXTT6=
EXTT7=
EXTT8=
EXTT9=
PLAYORDER=
